<?xml version="1.0" encoding="utf-8"?>
<!-- Svg Vector Icons : http://www.onlinewebfonts.com/icon -->
<!DOCTYPE svg PUBLIC "-//W3C//DTD SVG 1.1//EN" "http://www.w3.org/Graphics/SVG/1.1/DTD/svg11.dtd">
<svg version="1.1" xmlns="http://www.w3.org/2000/svg" xmlns:xlink="http://www.w3.org/1999/xlink" x="0px" y="0px" viewBox="0 0 1000 1000" enable-background="new 0 0 1000 1000" xml:space="preserve">
<metadata> Svg Vector Icons : http://www.onlinewebfonts.com/icon </metadata>
<g><path d="M397.5,110.8c0,55.6,45.1,100.7,100.8,100.7S599,166.4,599,110.8S553.9,10,498.2,10S397.5,55.1,397.5,110.8z"/><path d="M401,489.2c0,55.6,45.1,100.8,100.7,100.8c55.6,0,100.8-45.1,100.8-100.8s-45.1-100.7-100.8-100.7C446.1,388.5,401,433.6,401,489.2z"/><path d="M401,889.3c0,55.6,45.1,100.7,100.7,100.7c55.6,0,100.8-45.1,100.8-100.7s-45.1-100.7-100.8-100.7C446.1,788.5,401,833.6,401,889.3z"/></g>
</svg>